<?xml version="1.0" encoding="UTF-8"?>
<svg width="400px" height="400px" viewBox="0 0 400 400" version="1.1" xmlns="http://www.w3.org/2000/svg" xmlns:xlink="http://www.w3.org/1999/xlink">
    <title>kin-icon-white-on-violet</title>
    <defs>
        <linearGradient x1="0.250809465%" y1="-12.4737448%" x2="65.0194612%" y2="101.073921%" id="linearGradient-1">
            <stop stop-color="#FFFFFF" stop-opacity="0" offset="0%"></stop>
            <stop stop-color="#FFFFFF" offset="100%"></stop>
        </linearGradient>
        <linearGradient x1="70.5715816%" y1="-5.17351002%" x2="6.73153017%" y2="87.9965198%" id="linearGradient-2">
            <stop stop-color="#FFFFFF" offset="0%"></stop>
            <stop stop-color="#FFFFFF" stop-opacity="0" offset="3%"></stop>
            <stop stop-color="#FFFFFF" offset="100%"></stop>
        </linearGradient>
    </defs>
    <g id="NEW-Purple-White-Copy" stroke="none" stroke-width="1" fill="none" fill-rule="evenodd">
        <g id="kin-icon-white-on-violet">
            <rect id="Rectangle" fill="#7546F6" x="0" y="0" width="400" height="400"></rect>
            <g id="kin-logo-white-sideicon" transform="translate(73.828125, 54.296875)" fill-rule="nonzero">
                <g id="Group">
                    <polygon id="Path" fill="#7546F6" points="126.169422 146.401911 126.169422 291.015625 252.34375 217.968993"></polygon>
                    <polygon id="Path" fill="#7546F6" points="126.169422 0 126.169422 146.401911 252.34375 72.7526815"></polygon>
                    <polygon id="Path" fill="#FFFFFF" points="0 72.7526815 0 218.262944 126.169422 291.015625 126.68448 290.716776 126.169422 146.401911 126.169422 0"></polygon>
                    <polygon id="Path" fill="#FFFFFF" points="252.34375 72.7526815 126.169422 146.401911 252.34375 217.968993"></polygon>
                </g>
            </g>
            <g id="kin-logo-white-sideicon" transform="translate(73.828125, 54.296875)" fill-rule="nonzero">
                <g id="Group">
                    <polygon id="Path" fill="url(#linearGradient-1)" points="126.169422 146.401911 126.169422 291.015625 252.34375 217.968993"></polygon>
                    <polygon id="Path" fill="url(#linearGradient-2)" points="126.169422 0 126.169422 146.401911 252.34375 72.7526815"></polygon>
                    <polygon id="Path" stroke="#FFFFFF" fill="#FFFFFF" points="0 72.7526815 0 218.262944 126.169422 291.015625 126.68448 290.716776 126.169422 146.401911 126.169422 0"></polygon>
                    <polygon id="Path" fill="#FFFFFF" points="252.34375 72.7526815 126.169422 146.401911 252.34375 217.968993"></polygon>
                </g>
            </g>
        </g>
    </g>
</svg>