<?xml version="1.0" encoding="utf-8"?>
<!-- Generator: Adobe Illustrator 23.0.0, SVG Export Plug-In . SVG Version: 6.00 Build 0)  -->
<svg version="1.1" id="Layer_1" xmlns="http://www.w3.org/2000/svg" xmlns:xlink="http://www.w3.org/1999/xlink" x="0px" y="0px"
	 width="576px" height="576px" viewBox="0 0 576 576" style="enable-background:new 0 0 576 576;" xml:space="preserve">
<style type="text/css">
	.st0{fill-rule:evenodd;clip-rule:evenodd;fill:#6F41E8;}
	.st1{fill-rule:evenodd;clip-rule:evenodd;fill:#FFFFFF;}
</style>
<path class="st0" d="M568.8562,240.55832c-9.40131-30.58475-24.56512-56.95024-73.6145-105.6163l-55.81494-55.37769
	C390.3772,30.89693,363.89355,15.94099,333.2363,6.7811c-30.65744-9.16125-61.97305-9.03921-92.55797,0.36204
	s-56.95041,24.56357-105.61664,73.61431l-55.49701,55.93427c-48.66757,49.04939-63.62351,75.53285-72.78476,106.19011
	c-9.15989,30.65726-9.03786,61.97421,0.36339,92.5578c9.40125,30.58609,24.56492,56.95026,73.61583,105.61765l55.81358,55.37634
	c49.05092,48.66739,75.5332,63.62466,106.19182,72.78592c30.65746,9.16125,61.97301,9.0379,92.55797-0.3634
	c30.58356-9.40125,56.94907-24.56488,105.61646-73.61563l55.49738-55.93292c48.66602-49.05075,63.62201-75.53421,72.7832-106.19147
	C578.3808,302.45883,578.25745,271.14325,568.8562,240.55832L568.8562,240.55832z"/>
<title>Test 3</title>
<desc>Created with Sketch.</desc>
<path class="st1" d="M382.5191,237.52829c0,9.68555-7.82852,17.54094-17.48856,17.54094h-16.33429
	c-17.55701,0-31.78345,14.27074-31.78345,31.87321h-0.06171c0,17.60397,16.3208,31.87469,33.87778,31.87469h14.43436
	c9.58362,0,17.35587,7.79102,17.35587,17.39474v48.00772h-48.31888c-9.58499,0-17.34912-7.79251-17.34912-17.40286V350.7468
	c0-17.59723-14.8165-32.45801-32.3735-32.45801v-0.06421c-17.55835,0-31.20572,15.57385-31.20572,34.12167v14.61536
	c0,9.52853-7.70378,17.258-17.21237,17.258h-42.90498V190.05688h43.25504c9.30998,0,16.86232,7.56586,16.86232,16.90543v16.23357
	c0,17.6011,15.11685,32.75954,32.67386,32.75954c17.55563,0,30.90536-15.15843,30.90536-32.75954v-15.60481
	c0-9.68538,7.82718-17.53418,17.48721-17.53418h48.18079V237.52829z"/>
</svg>
